<svg width="384" height="49" viewBox="0 0 384 49" fill="none" xmlns="http://www.w3.org/2000/svg">
<path d="M0.48 39L12.96 9.88H17.12L29.6 39H24.96L23.2 34.84H6.88L5.2 39H0.48ZM8.64 30.68H21.44L15.04 15.32L8.64 30.68ZM32.7981 39V9.88H45.5981C54.0781 9.88 60.3981 15.88 60.3981 24.44C60.3981 32.52 53.6781 39 45.5981 39H32.7981ZM37.5181 34.84H45.5981C51.3581 34.84 55.6781 30.28 55.6781 24.44C55.6781 18.6 51.3581 14.04 45.5981 14.04H37.5181V34.84ZM73.0381 39L60.5581 9.88H65.2781L75.1181 33.56L85.0381 9.88H89.6781L77.1981 39H73.0381ZM86.6519 39L99.1319 9.88H103.292L115.772 39H111.132L109.372 34.84H93.0519L91.3719 39H86.6519ZM94.8119 30.68H107.612L101.212 15.32L94.8119 30.68ZM118.97 39V9.88H122.97L143.93 32.04V9.88H148.65V39H144.65L123.69 16.84V39H118.97ZM163.287 39V14.04H152.567V9.88H178.647V14.04H167.927V39H163.287ZM176.339 39L188.819 9.88H192.979L205.459 39H200.819L199.059 34.84H182.739L181.059 39H176.339ZM184.499 30.68H197.299L190.899 15.32L184.499 30.68ZM220.755 39.4C211.875 39.4 205.635 33.32 205.635 24.44C205.635 16.2 212.515 9.48 220.755 9.48C225.155 9.48 228.755 11.16 231.395 13.72L228.195 16.92C226.355 14.92 223.795 13.72 220.755 13.72C214.835 13.72 210.435 18.52 210.435 24.44C210.435 30.36 214.835 35.16 220.755 35.16C225.155 35.16 228.755 32.44 230.275 28.6H220.755V24.44H235.795C235.795 32.6 228.915 39.4 220.755 39.4ZM239.4 39V9.88H265V14.04H244.12V22.36H264.68V26.52H244.12V34.84H265V39H239.4Z" fill="black"/>
<rect x="284.75" y="0.75" width="98.5" height="47.5" rx="11.25" stroke="#8C58F9" stroke-width="1.5"/>
<path d="M310.114 33V15.5455H316.216C317.432 15.5455 318.435 15.7557 319.224 16.1761C320.014 16.5909 320.602 17.1506 320.989 17.8551C321.375 18.554 321.568 19.3295 321.568 20.1818C321.568 20.9318 321.435 21.5511 321.168 22.0398C320.906 22.5284 320.56 22.9148 320.128 23.1989C319.702 23.483 319.239 23.6932 318.739 23.8295V24C319.273 24.0341 319.81 24.2216 320.349 24.5625C320.889 24.9034 321.341 25.392 321.705 26.0284C322.068 26.6648 322.25 27.4432 322.25 28.3636C322.25 29.2386 322.051 30.0256 321.653 30.7244C321.256 31.4233 320.628 31.9773 319.77 32.3864C318.912 32.7955 317.795 33 316.42 33H310.114ZM312.227 31.125H316.42C317.801 31.125 318.781 30.858 319.361 30.3239C319.946 29.7841 320.239 29.1307 320.239 28.3636C320.239 27.7727 320.088 27.2273 319.787 26.7273C319.486 26.2216 319.057 25.8182 318.5 25.517C317.943 25.2102 317.284 25.0568 316.523 25.0568H312.227V31.125ZM312.227 23.2159H316.148C316.784 23.2159 317.358 23.0909 317.869 22.8409C318.386 22.5909 318.795 22.2386 319.097 21.7841C319.403 21.3295 319.557 20.7955 319.557 20.1818C319.557 19.4148 319.29 18.7642 318.756 18.2301C318.222 17.6903 317.375 17.4205 316.216 17.4205H312.227V23.2159ZM330.939 33.2727C329.678 33.2727 328.589 32.9943 327.675 32.4375C326.766 31.875 326.064 31.0909 325.57 30.0852C325.081 29.0739 324.837 27.8977 324.837 26.5568C324.837 25.2159 325.081 24.0341 325.57 23.0114C326.064 21.983 326.751 21.1818 327.632 20.608C328.518 20.0284 329.553 19.7386 330.734 19.7386C331.416 19.7386 332.089 19.8523 332.754 20.0795C333.419 20.3068 334.024 20.6761 334.57 21.1875C335.115 21.6932 335.55 22.3636 335.874 23.1989C336.197 24.0341 336.359 25.0625 336.359 26.2841V27.1364H326.268V25.3977H334.314C334.314 24.6591 334.166 24 333.871 23.4205C333.581 22.8409 333.166 22.3835 332.626 22.0483C332.092 21.7131 331.462 21.5455 330.734 21.5455C329.933 21.5455 329.24 21.7443 328.655 22.142C328.075 22.5341 327.629 23.0455 327.317 23.6761C327.004 24.3068 326.848 24.983 326.848 25.7045V26.8636C326.848 27.8523 327.018 28.6903 327.359 29.3778C327.706 30.0597 328.186 30.5795 328.8 30.9375C329.413 31.2898 330.126 31.4659 330.939 31.4659C331.467 31.4659 331.945 31.392 332.371 31.2443C332.803 31.0909 333.175 30.8636 333.487 30.5625C333.8 30.2557 334.041 29.875 334.212 29.4205L336.155 29.9659C335.95 30.625 335.607 31.2045 335.124 31.7045C334.641 32.1989 334.044 32.5852 333.334 32.8636C332.624 33.1364 331.825 33.2727 330.939 33.2727ZM345.112 19.9091V21.6136H338.328V19.9091H345.112ZM340.305 16.7727H342.317V29.25C342.317 29.8182 342.399 30.2443 342.564 30.5284C342.734 30.8068 342.95 30.9943 343.212 31.0909C343.479 31.1818 343.76 31.2273 344.055 31.2273C344.277 31.2273 344.459 31.2159 344.601 31.1932C344.743 31.1648 344.857 31.142 344.942 31.125L345.351 32.9318C345.214 32.983 345.024 33.0341 344.78 33.0852C344.536 33.142 344.226 33.1705 343.851 33.1705C343.283 33.1705 342.726 33.0483 342.18 32.804C341.641 32.5597 341.192 32.1875 340.834 31.6875C340.482 31.1875 340.305 30.5568 340.305 29.7955V16.7727ZM351.99 33.3068C351.161 33.3068 350.408 33.1506 349.732 32.8381C349.055 32.5199 348.518 32.0625 348.121 31.4659C347.723 30.8636 347.524 30.1364 347.524 29.2841C347.524 28.5341 347.672 27.9261 347.967 27.4602C348.263 26.9886 348.658 26.6193 349.152 26.3523C349.646 26.0852 350.192 25.8864 350.788 25.7557C351.391 25.6193 351.996 25.5114 352.604 25.4318C353.399 25.3295 354.044 25.2528 354.538 25.2017C355.038 25.1449 355.402 25.0511 355.629 24.9205C355.862 24.7898 355.979 24.5625 355.979 24.2386V24.1705C355.979 23.3295 355.749 22.6761 355.288 22.2102C354.834 21.7443 354.143 21.5114 353.217 21.5114C352.257 21.5114 351.504 21.7216 350.959 22.142C350.413 22.5625 350.03 23.0114 349.808 23.4886L347.899 22.8068C348.24 22.0114 348.695 21.392 349.263 20.9489C349.837 20.5 350.462 20.1875 351.138 20.0114C351.82 19.8295 352.49 19.7386 353.149 19.7386C353.57 19.7386 354.053 19.7898 354.598 19.892C355.149 19.9886 355.68 20.1903 356.192 20.4972C356.709 20.804 357.138 21.267 357.479 21.8864C357.82 22.5057 357.99 23.3352 357.99 24.375V33H355.979V31.2273H355.876C355.74 31.5114 355.513 31.8153 355.195 32.1392C354.876 32.4631 354.453 32.7386 353.925 32.9659C353.396 33.1932 352.751 33.3068 351.99 33.3068ZM352.297 31.5C353.092 31.5 353.763 31.3438 354.308 31.0312C354.859 30.7188 355.274 30.3153 355.553 29.821C355.837 29.3267 355.979 28.8068 355.979 28.2614V26.4205C355.893 26.5227 355.706 26.6165 355.416 26.7017C355.132 26.7812 354.803 26.8523 354.428 26.9148C354.058 26.9716 353.697 27.0227 353.345 27.0682C352.999 27.108 352.717 27.142 352.501 27.1705C351.979 27.2386 351.49 27.3494 351.036 27.5028C350.587 27.6506 350.223 27.875 349.945 28.1761C349.672 28.4716 349.536 28.875 349.536 29.3864C349.536 30.0852 349.794 30.6136 350.311 30.9716C350.834 31.3239 351.496 31.5 352.297 31.5Z" fill="#8C58F9"/>
</svg>
