<svg width="347" height="31" viewBox="0 0 347 31" fill="none" xmlns="http://www.w3.org/2000/svg">
<path d="M0.48 30L12.96 0.879998H17.12L29.6 30H24.96L23.2 25.84H6.88L5.2 30H0.48ZM8.64 21.68H21.44L15.04 6.32L8.64 21.68ZM32.7981 30V0.879998H45.5981C54.0781 0.879998 60.3981 6.88 60.3981 15.44C60.3981 23.52 53.6781 30 45.5981 30H32.7981ZM37.5181 25.84H45.5981C51.3581 25.84 55.6781 21.28 55.6781 15.44C55.6781 9.6 51.3581 5.04 45.5981 5.04H37.5181V25.84ZM73.0381 30L60.5581 0.879998H65.2781L75.1181 24.56L85.0381 0.879998H89.6781L77.1981 30H73.0381ZM86.6519 30L99.1319 0.879998H103.292L115.772 30H111.132L109.372 25.84H93.0519L91.3719 30H86.6519ZM94.8119 21.68H107.612L101.212 6.32L94.8119 21.68ZM118.97 30V0.879998H122.97L143.93 23.04V0.879998H148.65V30H144.65L123.69 7.84V30H118.97ZM163.287 30V5.04H152.567V0.879998H178.647V5.04H167.927V30H163.287ZM176.339 30L188.819 0.879998H192.979L205.459 30H200.819L199.059 25.84H182.739L181.059 30H176.339ZM184.499 21.68H197.299L190.899 6.32L184.499 21.68ZM220.755 30.4C211.875 30.4 205.635 24.32 205.635 15.44C205.635 7.2 212.515 0.479999 220.755 0.479999C225.155 0.479999 228.755 2.16 231.395 4.72L228.195 7.92C226.355 5.92 223.795 4.72 220.755 4.72C214.835 4.72 210.435 9.52 210.435 15.44C210.435 21.36 214.835 26.16 220.755 26.16C225.155 26.16 228.755 23.44 230.275 19.6H220.755V15.44H235.795C235.795 23.6 228.915 30.4 220.755 30.4ZM239.4 30V0.879998H265V5.04H244.12V13.36H264.68V17.52H244.12V25.84H265V30H239.4Z" fill="black"/>
<rect x="284.5" y="2" width="62" height="27" rx="5.5" stroke="#9D70FA"/>
<path d="M301.233 20.5V10.3182H304.793C305.502 10.3182 306.087 10.4408 306.548 10.6861C307.008 10.928 307.351 11.2545 307.577 11.6655C307.802 12.0732 307.915 12.5256 307.915 13.0227C307.915 13.4602 307.837 13.8215 307.681 14.1065C307.529 14.3916 307.326 14.617 307.075 14.7827C306.826 14.9484 306.556 15.071 306.264 15.1506V15.25C306.576 15.2699 306.889 15.3793 307.204 15.5781C307.519 15.777 307.782 16.062 307.994 16.4332C308.206 16.8045 308.312 17.2585 308.312 17.7955C308.312 18.3059 308.196 18.7649 307.964 19.1726C307.732 19.5803 307.366 19.9034 306.866 20.142C306.365 20.3807 305.714 20.5 304.912 20.5H301.233ZM302.466 19.4062H304.912C305.717 19.4062 306.289 19.2505 306.627 18.9389C306.969 18.6241 307.139 18.2429 307.139 17.7955C307.139 17.4508 307.051 17.1326 306.876 16.8409C306.7 16.5459 306.45 16.3106 306.125 16.1349C305.8 15.956 305.416 15.8665 304.972 15.8665H302.466V19.4062ZM302.466 14.7926H304.753C305.124 14.7926 305.459 14.7197 305.757 14.5739C306.059 14.428 306.297 14.2225 306.473 13.9574C306.652 13.6922 306.741 13.3807 306.741 13.0227C306.741 12.5753 306.586 12.1958 306.274 11.8842C305.963 11.5694 305.469 11.4119 304.793 11.4119H302.466V14.7926ZM313.381 20.6591C312.645 20.6591 312.011 20.4967 311.477 20.1719C310.947 19.8438 310.537 19.3864 310.249 18.7997C309.964 18.2098 309.821 17.5237 309.821 16.7415C309.821 15.9593 309.964 15.2699 310.249 14.6733C310.537 14.0734 310.938 13.6061 311.452 13.2713C311.969 12.9332 312.572 12.7642 313.262 12.7642C313.659 12.7642 314.052 12.8305 314.44 12.9631C314.828 13.0956 315.181 13.3111 315.499 13.6094C315.817 13.9044 316.071 14.2955 316.26 14.7827C316.449 15.2699 316.543 15.8698 316.543 16.5824V17.0795H310.657V16.0653H315.35C315.35 15.6345 315.264 15.25 315.091 14.9119C314.922 14.5739 314.68 14.3071 314.365 14.1115C314.054 13.916 313.686 13.8182 313.262 13.8182C312.794 13.8182 312.39 13.9342 312.049 14.1662C311.711 14.3949 311.45 14.6932 311.268 15.0611C311.086 15.429 310.995 15.8234 310.995 16.2443V16.9205C310.995 17.4972 311.094 17.986 311.293 18.3871C311.495 18.7848 311.775 19.0881 312.133 19.2969C312.491 19.5024 312.907 19.6051 313.381 19.6051C313.689 19.6051 313.968 19.562 314.216 19.4759C314.468 19.3864 314.685 19.2538 314.868 19.0781C315.05 18.8991 315.191 18.6771 315.29 18.4119L316.424 18.7301C316.304 19.1146 316.104 19.4527 315.822 19.7443C315.54 20.0327 315.192 20.258 314.778 20.4205C314.364 20.5795 313.898 20.6591 313.381 20.6591ZM321.649 12.8636V13.858H317.691V12.8636H321.649ZM318.845 11.0341H320.018V18.3125C320.018 18.6439 320.066 18.8925 320.162 19.0582C320.262 19.2206 320.388 19.33 320.54 19.3864C320.696 19.4394 320.86 19.4659 321.032 19.4659C321.162 19.4659 321.268 19.4593 321.35 19.446C321.433 19.4295 321.5 19.4162 321.549 19.4062L321.788 20.4602C321.708 20.4901 321.597 20.5199 321.455 20.5497C321.312 20.5829 321.132 20.5994 320.913 20.5994C320.582 20.5994 320.257 20.5282 319.939 20.3857C319.624 20.2431 319.362 20.026 319.153 19.7344C318.948 19.4427 318.845 19.0748 318.845 18.6307V11.0341ZM325.661 20.679C325.177 20.679 324.738 20.5878 324.343 20.4055C323.949 20.2199 323.636 19.9531 323.404 19.6051C323.172 19.2538 323.056 18.8295 323.056 18.3324C323.056 17.8949 323.142 17.5402 323.314 17.2685C323.487 16.9934 323.717 16.7779 324.005 16.6222C324.294 16.4664 324.612 16.3504 324.96 16.2741C325.311 16.1946 325.664 16.1316 326.019 16.0852C326.483 16.0256 326.859 15.9808 327.147 15.951C327.439 15.9179 327.651 15.8632 327.784 15.7869C327.92 15.7107 327.988 15.5781 327.988 15.3892V15.3494C327.988 14.8589 327.853 14.4777 327.585 14.206C327.32 13.9342 326.917 13.7983 326.377 13.7983C325.817 13.7983 325.377 13.9209 325.059 14.1662C324.741 14.4115 324.517 14.6733 324.388 14.9517L323.275 14.554C323.473 14.09 323.739 13.7287 324.07 13.4702C324.405 13.2083 324.769 13.026 325.164 12.9233C325.561 12.8172 325.953 12.7642 326.337 12.7642C326.582 12.7642 326.864 12.794 327.182 12.8537C327.504 12.91 327.814 13.0277 328.112 13.2067C328.413 13.3857 328.664 13.6558 328.863 14.017C329.061 14.3783 329.161 14.8622 329.161 15.4688V20.5H327.988V19.4659H327.928C327.848 19.6316 327.716 19.8089 327.53 19.9979C327.345 20.1868 327.098 20.3475 326.789 20.4801C326.481 20.6127 326.105 20.679 325.661 20.679ZM325.84 19.625C326.304 19.625 326.695 19.5339 327.013 19.3516C327.335 19.1693 327.577 18.9339 327.739 18.6456C327.905 18.3572 327.988 18.054 327.988 17.7358V16.6619C327.938 16.7216 327.828 16.7763 327.659 16.826C327.494 16.8724 327.301 16.9138 327.083 16.9503C326.867 16.9834 326.657 17.0133 326.451 17.0398C326.249 17.063 326.085 17.0829 325.959 17.0994C325.654 17.1392 325.369 17.2038 325.104 17.2933C324.842 17.3795 324.63 17.5104 324.468 17.6861C324.309 17.8584 324.229 18.0937 324.229 18.392C324.229 18.7997 324.38 19.108 324.681 19.3168C324.986 19.5223 325.373 19.625 325.84 19.625Z" fill="#9D70FA"/>
</svg>
