<svg width="320" height="57" viewBox="0 0 320 57" fill="none" xmlns="http://www.w3.org/2000/svg">
<mask id="mask0_2087_9106" style="mask-type:luminance" maskUnits="userSpaceOnUse" x="0" y="0" width="83" height="57">
<path d="M82.0513 0H0V57H82.0513V0Z" fill="white"/>
</mask>
<g mask="url(#mask0_2087_9106)">
<path d="M75.8199 0H82.055C82.055 0 73.527 12.3497 72.3421 24.3598C70.6909 41.1161 78.8509 53.3948 81.3801 56.906C79.0166 56.9361 77.6365 56.9573 75.2472 56.906C69.2443 47.6349 65.9545 32.5887 67.6094 24.4806C63.474 30.1532 55.4831 39.6959 41.9192 47.0804C24.2883 56.6784 7.48862 57.1812 0 56.9662V51.0162C10.6871 51.7344 25.0414 48.7106 32.7439 45.0272C36.5747 43.1946 48.1026 38.4515 57.8338 28.5018C59.5015 26.797 61.9881 24.2548 64.569 20.3795C67.7694 15.0482 69.3986 11.9461 72.3274 6.51347C73.8466 3.69405 74.9567 1.42927 75.8162 0.0017777L75.8199 0Z" fill="black"/>
</g>
<path d="M96.4113 40.069L106.651 16.357H110.065L120.305 40.069H116.497L115.053 36.6815H101.663L100.284 40.069H96.4113ZM103.107 33.2941H113.609L108.358 20.7867L103.107 33.2941ZM122.929 40.069V16.357H133.431C140.389 16.357 145.575 21.2427 145.575 28.213C145.575 34.7924 140.061 40.069 133.431 40.069H122.929ZM126.801 36.6815H133.431C138.157 36.6815 141.702 32.9684 141.702 28.213C141.702 23.4575 138.157 19.7444 133.431 19.7444H126.801V36.6815ZM155.946 40.069L145.706 16.357H149.579L157.653 35.6392L165.792 16.357H169.599L159.359 40.069H155.946ZM167.116 40.069L177.356 16.357H180.77L191.01 40.069H187.203L185.759 36.6815H172.368L170.989 40.069H167.116ZM173.812 33.2941H184.314L179.063 20.7867L173.812 33.2941ZM193.634 40.069V16.357H196.916L214.114 34.4015V16.357H217.987V40.069H214.705L197.507 22.0244V40.069H193.634ZM229.996 40.069V19.7444H221.201V16.357H242.6V19.7444H233.804V40.069H229.996ZM240.706 40.069L250.946 16.357H254.36L264.6 40.069H260.792L259.348 36.6815H245.958L244.579 40.069H240.706ZM247.402 33.2941H257.904L252.653 20.7867L247.402 33.2941ZM277.149 40.3947C269.863 40.3947 264.743 35.4438 264.743 28.213C264.743 21.5033 270.388 16.0312 277.149 16.0312C280.76 16.0312 283.713 17.3992 285.88 19.4838L283.254 22.0895C281.744 20.461 279.644 19.4838 277.149 19.4838C272.292 19.4838 268.682 23.3924 268.682 28.213C268.682 33.0335 272.292 36.9421 277.149 36.9421C280.76 36.9421 283.713 34.7273 284.961 31.6004H277.149V28.213H289.49C289.49 34.8575 283.845 40.3947 277.149 40.3947ZM292.448 40.069V16.357H313.453V19.7444H296.321V26.5192H313.19V29.9067H296.321V36.6815H313.453V40.069H292.448Z" fill="black"/>
</svg>
