<svg width="16" height="16" viewBox="0 0 16 16" fill="none" xmlns="http://www.w3.org/2000/svg">
<path d="M3.77492 1.71875L2.7368 6.21875H3.31555L4.22492 2.28125H4.79367L4.14992 6.21875H4.7218L5.03742 4.28125H7.71867V6.21875H8.28117V4.28125H10.9624L11.278 6.21875H11.8499L11.2062 2.28125H11.7749L12.6843 6.21875H13.2624L12.2249 1.71875H3.77492ZM5.36555 2.28125H10.6343L10.8718 3.71875H5.12805L5.36555 2.28125ZM2.28117 6.78125V7.71875H13.7187V6.78125H2.28117ZM2.26117 8.28125L0.646484 15.2813H15.353L13.7374 8.28125H13.1593L14.6468 14.7188H13.2405L12.1874 8.28125H11.6155L12.0593 11H8.28117V8.28125H7.71867V11H3.94055L4.3843 8.28125H3.81242L2.76086 14.7188H1.35336L2.83961 8.28125H2.26117ZM3.8468 11.5625H12.153L12.6687 14.7188H3.33117L3.8468 11.5625Z" fill="#999999"></path>
</svg>