<svg width="46" height="31" viewBox="0 0 46 31" fill="none" xmlns="http://www.w3.org/2000/svg">
<mask id="mask0_1083_6458" style="mask-type:luminance" maskUnits="userSpaceOnUse" x="0" y="0" width="46" height="31">
<path d="M45.1282 0H0V31H45.1282V0Z" fill="white"></path>
</mask>
<g mask="url(#mask0_1083_6458)">
<path d="M41.7009 0H45.1302C45.1302 0 40.4398 6.71648 39.7882 13.2483C38.88 22.3614 43.368 29.0393 44.7591 30.9489C43.4591 30.9652 42.7001 30.9768 41.3859 30.9489C38.0844 25.9067 36.275 17.7237 37.1852 13.314C34.9107 16.3991 30.5157 21.589 23.0555 25.6051C13.3586 30.8251 4.11874 31.0985 0 30.9816V27.7457C5.87793 28.1363 13.7728 26.4917 18.0092 24.4885C20.1161 23.4918 26.4564 20.9122 31.8086 15.501C32.7258 14.5738 34.0935 13.1912 35.513 11.0836C37.2732 8.18409 38.1692 6.497 39.7801 3.54241C40.6156 2.00904 41.2262 0.777321 41.6989 0.000966817L41.7009 0Z" fill="black"></path>
</g>
</svg>