<svg width="141" height="24" viewBox="0 0 141 24" fill="none" xmlns="http://www.w3.org/2000/svg">
<g clip-path="url(#clip0_2704_6827)">
<path d="M27.7212 1.5H30.0009C30.0009 1.5 26.8828 6.04987 26.4497 10.4746C25.846 16.6481 28.8294 21.1718 29.7541 22.4653C28.8899 22.4764 28.3854 22.4843 27.5118 22.4653C25.317 19.0498 24.1142 13.5064 24.7193 10.5192C23.2072 12.6091 20.2856 16.1248 15.3263 18.8454C8.87997 22.3815 2.73759 22.5668 -0.000434875 22.4876V20.2955C3.90705 20.5601 9.15534 19.446 11.9716 18.089C13.3722 17.4137 17.587 15.6664 21.145 12.0007C21.7549 11.3726 22.6639 10.436 23.6077 9.00823C24.7778 7.04407 25.3734 5.9012 26.4443 3.8997C26.9998 2.86097 27.4057 2.02657 27.7198 1.50065L27.7212 1.5Z" fill="black"></path>
</g>
<path d="M34.192 18L39.184 6.352H40.848L45.84 18H43.984L43.28 16.336H36.752L36.08 18H34.192ZM37.456 14.672H42.576L40.016 8.528L37.456 14.672ZM47.1193 18V6.352H52.2393C55.6313 6.352 58.1593 8.752 58.1593 12.176C58.1593 15.408 55.4713 18 52.2393 18H47.1193ZM49.0073 16.336H52.2393C54.5433 16.336 56.2713 14.512 56.2713 12.176C56.2713 9.84 54.5433 8.016 52.2393 8.016H49.0073V16.336ZM63.2153 18L58.2233 6.352H60.1113L64.0473 15.824L68.0153 6.352H69.8713L64.8793 18H63.2153ZM68.6608 18L73.6528 6.352H75.3168L80.3088 18H78.4528L77.7488 16.336H71.2208L70.5488 18H68.6608ZM71.9248 14.672H77.0448L74.4848 8.528L71.9248 14.672ZM81.588 18V6.352H83.188L91.572 15.216V6.352H93.46V18H91.86L83.476 9.136V18H81.588ZM99.3149 18V8.016H95.0269V6.352H105.459V8.016H101.171V18H99.3149ZM104.536 18L109.528 6.352H111.192L116.184 18H114.328L113.624 16.336H107.096L106.424 18H104.536ZM107.8 14.672H112.92L110.36 8.528L107.8 14.672ZM122.302 18.16C118.75 18.16 116.254 15.728 116.254 12.176C116.254 8.88 119.006 6.192 122.302 6.192C124.062 6.192 125.502 6.864 126.558 7.888L125.278 9.168C124.542 8.368 123.518 7.888 122.302 7.888C119.934 7.888 118.174 9.808 118.174 12.176C118.174 14.544 119.934 16.464 122.302 16.464C124.062 16.464 125.502 15.376 126.11 13.84H122.302V12.176H128.318C128.318 15.44 125.566 18.16 122.302 18.16ZM129.76 18V6.352H140V8.016H131.648V11.344H139.872V13.008H131.648V16.336H140V18H129.76Z" fill="black"></path>
<defs>
<clipPath id="clip0_2704_6827">
<rect width="30" height="21" fill="white" transform="translate(0 1.5)"></rect>
</clipPath>
</defs>
</svg>